REM DIRINDEX 1\2\5,1\2\6,1\2\7,1\2\8,1\3\9,1\3\10,1\3\11,1\4\12,1\4\13,1\4\14,1\4\15,1\4\16
REM DIRNAME cjc034,folder01,folder02,folder03,folder04,folder05,folder06,folder07,folder08,folder09,folder10,folder11,folder12,folder13,folder14,folder15
TITLE ""
FILE "1200_sec01_0177_0184.mp3" MP3
  TRACK 01 AUDIO
    TITLE "0:"
    INDEX 01 00:00:00
  TRACK 02 AUDIO
    TITLE "12:cjc034_04336"
    INDEX 01 00:00:21
  TRACK 03 AUDIO
    TITLE "0:"
    INDEX 01 00:01:38
  TRACK 04 AUDIO
    TITLE "13:cjc034_04337"
    INDEX 01 00:01:71
  TRACK 05 AUDIO
    TITLE "0:"
    INDEX 01 00:05:57
  TRACK 06 AUDIO
    TITLE "14:cjc034_04338"
    INDEX 01 00:06:16
  TRACK 07 AUDIO
    TITLE "0:"
    INDEX 01 00:07:33
  TRACK 08 AUDIO
    TITLE "15:cjc034_04339"
    INDEX 01 00:07:66
  TRACK 09 AUDIO
    TITLE "0:"
    INDEX 01 00:10:39
  TRACK 10 AUDIO
    TITLE "12:cjc034_04340"
    INDEX 01 00:11:74
  TRACK 11 AUDIO
    TITLE "0:"
    INDEX 01 00:13:06
  TRACK 12 AUDIO
    TITLE "13:cjc034_04341"
    INDEX 01 00:13:41
  TRACK 13 AUDIO
    TITLE "0:"
    INDEX 01 00:16:24
  TRACK 14 AUDIO
    TITLE "14:cjc034_04342"
    INDEX 01 00:16:59
  TRACK 15 AUDIO
    TITLE "0:"
    INDEX 01 00:17:65
  TRACK 16 AUDIO
    TITLE "15:cjc034_04343"
    INDEX 01 00:18:27
  TRACK 17 AUDIO
    TITLE "0:"
    INDEX 01 00:21:62
  TRACK 18 AUDIO
    TITLE "12:cjc034_04344"
    INDEX 01 00:23:28
  TRACK 19 AUDIO
    TITLE "0:"
    INDEX 01 00:24:35
  TRACK 20 AUDIO
    TITLE "13:cjc034_04345"
    INDEX 01 00:24:67
  TRACK 21 AUDIO
    TITLE "0:"
    INDEX 01 00:27:57
  TRACK 22 AUDIO
    TITLE "14:cjc034_04346"
    INDEX 01 00:28:13
  TRACK 23 AUDIO
    TITLE "0:"
    INDEX 01 00:29:21
  TRACK 24 AUDIO
    TITLE "15:cjc034_04347"
    INDEX 01 00:29:54
  TRACK 25 AUDIO
    TITLE "0:"
    INDEX 01 00:32:41
  TRACK 26 AUDIO
    TITLE "12:cjc034_04348"
    INDEX 01 00:34:00
  TRACK 27 AUDIO
    TITLE "0:"
    INDEX 01 00:35:08
  TRACK 28 AUDIO
    TITLE "13:cjc034_04349"
    INDEX 01 00:35:43
  TRACK 29 AUDIO
    TITLE "0:"
    INDEX 01 00:36:66
  TRACK 30 AUDIO
    TITLE "14:cjc034_04350"
    INDEX 01 00:37:24
  TRACK 31 AUDIO
    TITLE "0:"
    INDEX 01 00:38:31
  TRACK 32 AUDIO
    TITLE "15:cjc034_04351"
    INDEX 01 00:38:65
  TRACK 33 AUDIO
    TITLE "0:"
    INDEX 01 00:41:71
  TRACK 34 AUDIO
    TITLE "16:cjc034_04352"
    INDEX 01 00:43:27
  TRACK 35 AUDIO
    TITLE "0:"
    INDEX 01 00:44:30
  TRACK 36 AUDIO
    TITLE "12:cjc034_04353"
    INDEX 01 00:45:35
  TRACK 37 AUDIO
    TITLE "0:"
    INDEX 01 00:46:54
  TRACK 38 AUDIO
    TITLE "13:cjc034_04354"
    INDEX 01 00:47:11
  TRACK 39 AUDIO
    TITLE "0:"
    INDEX 01 00:51:24
  TRACK 40 AUDIO
    TITLE "14:cjc034_04355"
    INDEX 01 00:51:56
  TRACK 41 AUDIO
    TITLE "0:"
    INDEX 01 00:52:71
  TRACK 42 AUDIO
    TITLE "15:cjc034_04356"
    INDEX 01 00:53:35
  TRACK 43 AUDIO
    TITLE "0:"
    INDEX 01 00:57:11
  TRACK 44 AUDIO
    TITLE "12:cjc034_04357"
    INDEX 01 00:58:46
  TRACK 45 AUDIO
    TITLE "0:"
    INDEX 01 00:59:71
  TRACK 46 AUDIO
    TITLE "13:cjc034_04358"
    INDEX 01 01:00:29
  TRACK 47 AUDIO
    TITLE "0:"
    INDEX 01 01:01:40
  TRACK 48 AUDIO
    TITLE "14:cjc034_04359"
    INDEX 01 01:02:03
  TRACK 49 AUDIO
    TITLE "0:"
    INDEX 01 01:03:29
  TRACK 50 AUDIO
    TITLE "15:cjc034_04360"
    INDEX 01 01:03:61
  TRACK 51 AUDIO
    TITLE "0:"
    INDEX 01 01:06:45
  TRACK 52 AUDIO
    TITLE "12:cjc034_04361"
    INDEX 01 01:07:74
  TRACK 53 AUDIO
    TITLE "0:"
    INDEX 01 01:09:12
  TRACK 54 AUDIO
    TITLE "13:cjc034_04362"
    INDEX 01 01:09:46
  TRACK 55 AUDIO
    TITLE "0:"
    INDEX 01 01:11:74
  TRACK 56 AUDIO
    TITLE "14:cjc034_04363"
    INDEX 01 01:12:34
  TRACK 57 AUDIO
    TITLE "0:"
    INDEX 01 01:13:47
  TRACK 58 AUDIO
    TITLE "15:cjc034_04364"
    INDEX 01 01:14:04
  TRACK 59 AUDIO
    TITLE "0:"
    INDEX 01 01:17:12
  TRACK 60 AUDIO
    TITLE "12:cjc034_04365"
    INDEX 01 01:18:45
  TRACK 61 AUDIO
    TITLE "0:"
    INDEX 01 01:19:48
  TRACK 62 AUDIO
    TITLE "13:cjc034_04366"
    INDEX 01 01:20:10
  TRACK 63 AUDIO
    TITLE "0:"
    INDEX 01 01:22:29
  TRACK 64 AUDIO
    TITLE "14:cjc034_04367"
    INDEX 01 01:22:64
  TRACK 65 AUDIO
    TITLE "0:"
    INDEX 01 01:23:65
  TRACK 66 AUDIO
    TITLE "15:cjc034_04368"
    INDEX 01 01:24:32
  TRACK 67 AUDIO
    TITLE "0:"
    INDEX 01 01:26:48
